<svg width="34" height="34" viewBox="0 0 34 34" fill="none" xmlns="http://www.w3.org/2000/svg">
<path d="M15.3335 25.3333H18.6668V18.6666H25.3335V15.3333H18.6668V8.66665H15.3335V15.3333H8.66683V18.6666H15.3335V25.3333ZM17.0002 33.6666C14.6946 33.6666 12.5279 33.2291 10.5002 32.3541C8.47238 31.4791 6.7085 30.2916 5.2085 28.7916C3.7085 27.2916 2.521 25.5278 1.646 23.5C0.770996 21.4722 0.333496 19.3055 0.333496 17C0.333496 14.6944 0.770996 12.5278 1.646 10.5C2.521 8.4722 3.7085 6.70831 5.2085 5.20831C6.7085 3.70831 8.47238 2.52081 10.5002 1.64581C12.5279 0.770813 14.6946 0.333313 17.0002 0.333313C19.3057 0.333313 21.4724 0.770813 23.5002 1.64581C25.5279 2.52081 27.2918 3.70831 28.7918 5.20831C30.2918 6.70831 31.4793 8.4722 32.3543 10.5C33.2293 12.5278 33.6668 14.6944 33.6668 17C33.6668 19.3055 33.2293 21.4722 32.3543 23.5C31.4793 25.5278 30.2918 27.2916 28.7918 28.7916C27.2918 30.2916 25.5279 31.4791 23.5002 32.3541C21.4724 33.2291 19.3057 33.6666 17.0002 33.6666ZM17.0002 30.3333C20.7224 30.3333 23.8752 29.0416 26.4585 26.4583C29.0418 23.875 30.3335 20.7222 30.3335 17C30.3335 13.2778 29.0418 10.125 26.4585 7.54165C23.8752 4.95831 20.7224 3.66665 17.0002 3.66665C13.2779 3.66665 10.1252 4.95831 7.54183 7.54165C4.9585 10.125 3.66683 13.2778 3.66683 17C3.66683 20.7222 4.9585 23.875 7.54183 26.4583C10.1252 29.0416 13.2779 30.3333 17.0002 30.3333Z" fill="#4AA03C"/>
</svg>
