<svg width="29" height="34" viewBox="0 0 29 34" fill="none" xmlns="http://www.w3.org/2000/svg">
<path d="M10.0904 27.3285C9.17182 27.3285 8.38548 27.0046 7.73136 26.357C7.07725 25.7094 6.75019 24.9308 6.75019 24.0214V4.17869C6.75019 3.26924 7.07725 2.49069 7.73136 1.84305C8.38548 1.1954 9.17182 0.871582 10.0904 0.871582H25.1212C26.0397 0.871582 26.8261 1.1954 27.4802 1.84305C28.1343 2.49069 28.4614 3.26924 28.4614 4.17869V24.0214C28.4614 24.9308 28.1343 25.7094 27.4802 26.357C26.8261 27.0046 26.0397 27.3285 25.1212 27.3285H10.0904ZM10.0904 24.0214H25.1212V4.17869H10.0904V24.0214ZM3.41001 33.9427C2.49146 33.9427 1.70512 33.6189 1.051 32.9712C0.396884 32.3236 0.0698242 31.545 0.0698242 30.6356V7.4858H3.41001V30.6356H21.781V33.9427H3.41001Z" fill="#4AA03C"/>
</svg>
