<svg width="32" height="31" viewBox="0 0 32 31" fill="none" xmlns="http://www.w3.org/2000/svg">
<mask id="path-1-inside-1_449_83" fill="white">
<path d="M6.56537 30.1353C3.84904 30.1353 1.64702 27.9332 1.64702 25.2169C1.64702 23.9109 2.16649 22.6584 3.09088 21.7358L23.2179 1.64703C23.5453 1.31957 23.9137 1.07399 24.323 0.910261C24.7323 0.746536 25.1416 0.664673 25.5509 0.664673C25.9875 0.664673 26.4037 0.746536 26.7994 0.910261C27.195 1.07399 27.5429 1.31957 27.8431 1.64703L30.1353 3.93918C30.4627 4.23935 30.7083 4.58726 30.872 4.98293C31.0357 5.3786 31.1176 5.79474 31.1176 6.23134C31.1176 6.64065 31.0357 7.04997 30.872 7.45928C30.7083 7.86859 30.4627 8.23698 30.1353 8.56443L10.0465 28.6914C9.12383 29.6158 7.87142 30.1353 6.56537 30.1353ZM4.92153 25.2391C4.92153 26.1347 5.64757 26.8608 6.54319 26.8608C6.97256 26.8608 7.38441 26.6905 7.68841 26.3872L23.2997 10.8157L22.1536 9.62864L20.9666 8.48257L5.39504 24.0939C5.09182 24.3979 4.92153 24.8097 4.92153 25.2391ZM22.1536 9.62864L20.9666 8.48257L23.2997 10.8157L22.1536 9.62864ZM18.0196 30.1353C20.0389 30.1353 21.9081 29.6304 23.6272 28.6208C25.3463 27.6112 26.2058 26.2059 26.2058 24.4049C26.2058 23.4225 25.9466 22.5766 25.4282 21.8671C25.1187 21.4437 24.7461 21.0543 24.3103 20.6988C23.7715 20.2595 22.9966 20.3692 22.5051 20.8608L22.1524 21.2135C21.5634 21.8025 21.7872 22.7757 22.3992 23.3407C22.754 23.6681 22.9313 24.0228 22.9313 24.4049C22.9313 25.0325 22.4333 25.5987 21.4373 26.1035C20.4413 26.6083 19.3021 26.8608 18.0196 26.8608C17.5557 26.8608 17.1668 27.0177 16.853 27.3315C16.5392 27.6453 16.3823 28.0341 16.3823 28.498C16.3823 28.9619 16.5392 29.3507 16.853 29.6646C17.1668 29.9784 17.5557 30.1353 18.0196 30.1353ZM1.62576 16.9435C2.15884 17.3823 2.9291 17.2696 3.41732 16.7814L4.01245 16.1863C4.50093 15.6978 4.31052 14.8896 3.75499 14.479C3.44118 14.2471 3.28428 14.0083 3.28428 13.7627C3.28428 13.4353 3.52986 13.1078 4.02104 12.7804C4.51222 12.4529 5.54915 11.9481 7.13182 11.2659C9.53313 10.229 11.1295 9.28755 11.9208 8.44163C12.7121 7.59572 13.1078 6.64065 13.1078 5.57644C13.1078 4.07562 12.5075 2.88179 11.3068 1.99494C10.1062 1.1081 8.52349 0.664673 6.55879 0.664673C5.33084 0.664673 4.23252 0.882973 3.26381 1.31957C2.2951 1.75618 1.55151 2.28828 1.03305 2.9159C0.732887 3.27064 0.610093 3.66631 0.664668 4.10291C0.719243 4.53951 0.9239 4.89425 1.27864 5.16712C1.63338 5.46729 2.02905 5.59008 2.46565 5.53551C2.90225 5.48093 3.27063 5.30356 3.5708 5.0034C3.95282 4.62137 4.37578 4.3485 4.83967 4.18477C5.30356 4.02105 5.8766 3.93918 6.55879 3.93918C7.67758 3.93918 8.50303 4.10291 9.03513 4.43036C9.56724 4.75781 9.8333 5.13984 9.8333 5.57644C9.8333 5.95846 9.59453 6.30638 9.117 6.62019C8.63946 6.934 7.54114 7.48657 5.82202 8.27791C3.63901 9.23297 2.12455 10.0994 1.27864 10.8771C0.432723 11.6547 0.00976562 12.6166 0.00976562 13.7627C0.00976562 14.6359 0.24171 15.3795 0.705599 15.9935C0.962217 16.3331 1.26894 16.6498 1.62576 16.9435Z"/>
</mask>
<path d="M6.56537 30.1353C3.84904 30.1353 1.64702 27.9332 1.64702 25.2169C1.64702 23.9109 2.16649 22.6584 3.09088 21.7358L23.2179 1.64703C23.5453 1.31957 23.9137 1.07399 24.323 0.910261C24.7323 0.746536 25.1416 0.664673 25.5509 0.664673C25.9875 0.664673 26.4037 0.746536 26.7994 0.910261C27.195 1.07399 27.5429 1.31957 27.8431 1.64703L30.1353 3.93918C30.4627 4.23935 30.7083 4.58726 30.872 4.98293C31.0357 5.3786 31.1176 5.79474 31.1176 6.23134C31.1176 6.64065 31.0357 7.04997 30.872 7.45928C30.7083 7.86859 30.4627 8.23698 30.1353 8.56443L10.0465 28.6914C9.12383 29.6158 7.87142 30.1353 6.56537 30.1353ZM4.92153 25.2391C4.92153 26.1347 5.64757 26.8608 6.54319 26.8608C6.97256 26.8608 7.38441 26.6905 7.68841 26.3872L23.2997 10.8157L22.1536 9.62864L20.9666 8.48257L5.39504 24.0939C5.09182 24.3979 4.92153 24.8097 4.92153 25.2391ZM22.1536 9.62864L20.9666 8.48257L23.2997 10.8157L22.1536 9.62864ZM18.0196 30.1353C20.0389 30.1353 21.9081 29.6304 23.6272 28.6208C25.3463 27.6112 26.2058 26.2059 26.2058 24.4049C26.2058 23.4225 25.9466 22.5766 25.4282 21.8671C25.1187 21.4437 24.7461 21.0543 24.3103 20.6988C23.7715 20.2595 22.9966 20.3692 22.5051 20.8608L22.1524 21.2135C21.5634 21.8025 21.7872 22.7757 22.3992 23.3407C22.754 23.6681 22.9313 24.0228 22.9313 24.4049C22.9313 25.0325 22.4333 25.5987 21.4373 26.1035C20.4413 26.6083 19.3021 26.8608 18.0196 26.8608C17.5557 26.8608 17.1668 27.0177 16.853 27.3315C16.5392 27.6453 16.3823 28.0341 16.3823 28.498C16.3823 28.9619 16.5392 29.3507 16.853 29.6646C17.1668 29.9784 17.5557 30.1353 18.0196 30.1353ZM1.62576 16.9435C2.15884 17.3823 2.9291 17.2696 3.41732 16.7814L4.01245 16.1863C4.50093 15.6978 4.31052 14.8896 3.75499 14.479C3.44118 14.2471 3.28428 14.0083 3.28428 13.7627C3.28428 13.4353 3.52986 13.1078 4.02104 12.7804C4.51222 12.4529 5.54915 11.9481 7.13182 11.2659C9.53313 10.229 11.1295 9.28755 11.9208 8.44163C12.7121 7.59572 13.1078 6.64065 13.1078 5.57644C13.1078 4.07562 12.5075 2.88179 11.3068 1.99494C10.1062 1.1081 8.52349 0.664673 6.55879 0.664673C5.33084 0.664673 4.23252 0.882973 3.26381 1.31957C2.2951 1.75618 1.55151 2.28828 1.03305 2.9159C0.732887 3.27064 0.610093 3.66631 0.664668 4.10291C0.719243 4.53951 0.9239 4.89425 1.27864 5.16712C1.63338 5.46729 2.02905 5.59008 2.46565 5.53551C2.90225 5.48093 3.27063 5.30356 3.5708 5.0034C3.95282 4.62137 4.37578 4.3485 4.83967 4.18477C5.30356 4.02105 5.8766 3.93918 6.55879 3.93918C7.67758 3.93918 8.50303 4.10291 9.03513 4.43036C9.56724 4.75781 9.8333 5.13984 9.8333 5.57644C9.8333 5.95846 9.59453 6.30638 9.117 6.62019C8.63946 6.934 7.54114 7.48657 5.82202 8.27791C3.63901 9.23297 2.12455 10.0994 1.27864 10.8771C0.432723 11.6547 0.00976562 12.6166 0.00976562 13.7627C0.00976562 14.6359 0.24171 15.3795 0.705599 15.9935C0.962217 16.3331 1.26894 16.6498 1.62576 16.9435Z" fill="#4AA03C"/>
<path d="M22.1536 9.62864L31.1462 0.946215L30.9938 0.788448L30.8361 0.636122L22.1536 9.62864ZM32.2922 2.13323L31.1462 0.946215L13.1611 18.3111L14.3072 19.4981L32.2922 2.13323ZM30.8361 0.636122L29.6491 -0.509957L12.2842 17.4751L13.4712 18.6212L30.8361 0.636122ZM36.6819 -2.56656L34.3488 -4.89965L16.6712 12.778L19.0043 15.1111L36.6819 -2.56656ZM23.2179 1.64703L40.8787 19.3415L40.8871 19.3331L40.8955 19.3247L23.2179 1.64703ZM27.8431 1.64703L9.41425 18.5401L9.78132 18.9406L10.1654 19.3247L27.8431 1.64703ZM30.1353 3.93918L12.4576 21.6168L12.8417 22.001L13.2421 22.368L30.1353 3.93918ZM30.1353 8.56443L12.4576 -9.11324L12.4492 -9.10485L12.4408 -9.09645L30.1353 8.56443ZM23.2997 10.8157L40.9549 28.5158L58.6776 10.8382L40.9774 -6.86202L23.2997 10.8157ZM20.9666 8.48257L38.6443 -9.1951L20.9441 -26.8953L3.26646 -9.17257L20.9666 8.48257ZM25.4282 21.8671L5.24337 36.6175L25.4282 21.8671ZM7.13182 11.2659L17.0276 34.224L17.0351 34.2207L17.0427 34.2175L7.13182 11.2659ZM1.03305 2.9159L20.1177 19.0645L20.2131 18.9518L20.3071 18.8379L1.03305 2.9159ZM1.27864 5.16712L17.4272 -13.9175L16.9828 -14.2936L16.5214 -14.6485L1.27864 5.16712ZM5.82202 8.27791L15.8425 31.1818L16.06 31.0867L16.2756 30.9874L5.82202 8.27791ZM0.705599 15.9935L-19.2411 31.0643L0.705599 15.9935ZM5.39504 24.0939L23.0952 41.749L5.39504 24.0939ZM22.5051 20.8608L40.1827 38.5385L22.5051 20.8608ZM7.68841 26.3872L-9.96673 8.68706L7.68841 26.3872ZM4.01245 16.1863L21.6901 33.8639L4.01245 16.1863ZM10.0465 28.6914L-7.64798 11.0305L10.0465 28.6914ZM3.09088 21.7358L20.7517 39.4303L3.09088 21.7358ZM20.7517 39.4303L40.8787 19.3415L5.55698 -16.0474L-14.57 4.04136L20.7517 39.4303ZM40.8955 19.3247C38.952 21.2683 36.4996 22.9655 33.6078 24.1222L15.0382 -22.3017C11.3278 -20.8175 8.13866 -18.6291 5.54019 -16.0306L40.8955 19.3247ZM33.6078 24.1222C31.2934 25.0479 28.5601 25.6647 25.5509 25.6647V-24.3353C21.7232 -24.3353 18.1713 -23.5549 15.0382 -22.3017L33.6078 24.1222ZM25.5509 25.6647C22.7734 25.6647 19.936 25.126 17.2406 24.0107L36.3581 -22.1902C32.8714 -23.633 29.2017 -24.3353 25.5509 -24.3353V25.6647ZM17.2406 24.0107C14.1344 22.7254 11.4871 20.8015 9.41425 18.5401L46.272 -15.2461C43.5987 -18.1623 40.2556 -20.5774 36.3581 -22.1902L17.2406 24.0107ZM10.1654 19.3247L12.4576 21.6168L47.8129 -13.7385L45.5208 -16.0306L10.1654 19.3247ZM13.2421 22.368C10.9808 20.2951 9.0569 17.6479 7.7716 14.5417L53.9724 -4.57586C52.3597 -8.47333 49.9446 -11.8165 47.0284 -14.4897L13.2421 22.368ZM7.7716 14.5417C6.65625 11.8463 6.11761 9.00886 6.11761 6.23134H56.1176C56.1176 2.58061 55.4152 -1.08909 53.9724 -4.57586L7.7716 14.5417ZM6.11761 6.23134C6.11761 3.22224 6.73433 0.488946 7.66011 -1.82549L54.0839 16.744C55.3372 13.611 56.1176 10.0591 56.1176 6.23134H6.11761ZM7.66011 -1.82549C8.81684 -4.71732 10.514 -7.1697 12.4576 -9.11324L47.8129 26.2421C50.4114 23.6437 52.5998 20.4545 54.0839 16.744L7.66011 -1.82549ZM12.4408 -9.09645L-7.64798 11.0305L27.7409 46.3523L47.8297 26.2253L12.4408 -9.09645ZM25.3435 44.0874L40.9549 28.5158L5.64459 -6.88452L-9.96673 8.68706L25.3435 44.0874ZM3.26646 -9.17257L-12.3051 6.43874L23.0952 41.749L38.6668 26.1377L3.26646 -9.17257ZM3.28896 26.1602L5.62205 28.4933L40.9774 -6.86202L38.6443 -9.1951L3.28896 26.1602ZM18.0196 55.1353C24.4301 55.1353 30.6787 53.4722 36.2877 50.1779L10.9666 7.06366C13.1374 5.78873 15.6476 5.13526 18.0196 5.13526V55.1353ZM36.2877 50.1779C44.6646 45.2582 51.2058 36.1587 51.2058 24.4049H1.20585C1.20585 21.146 2.0404 17.3517 4.23425 13.765C6.35618 10.2958 9.02072 8.20649 10.9666 7.06366L36.2877 50.1779ZM51.2058 24.4049C51.2058 18.7745 49.6258 12.608 45.6129 7.11671L5.24337 36.6175C2.26741 32.5452 1.20585 28.0706 1.20585 24.4049H51.2058ZM45.6129 7.11671C43.9578 4.85178 42.0801 2.93106 40.1101 1.32452L8.51042 40.0732C7.41204 39.1774 6.27963 38.0356 5.24337 36.6175L45.6129 7.11671ZM4.82738 3.18315L4.47468 3.53585L39.83 38.8912L40.1827 38.5385L4.82738 3.18315ZM5.44223 41.7107C2.11116 38.6359 -2.06866 32.7459 -2.06866 24.4049H47.9313C47.9313 15.2998 43.3968 8.7003 39.3562 4.97057L5.44223 41.7107ZM-2.06866 24.4049C-2.06866 17.4683 0.869545 12.1051 3.7855 8.78966C6.3906 5.8277 9.03569 4.36145 10.135 3.80427L32.7397 48.4028C35.3921 47.0584 47.9313 40.1679 47.9313 24.4049H-2.06866ZM10.135 3.80427C13.1296 2.28646 15.9606 1.86075 18.0196 1.86075V51.8608C22.6436 51.8608 27.7531 50.9302 32.7397 48.4028L10.135 3.80427ZM18.0196 1.86075C11.2598 1.86075 4.40895 4.42021 -0.824641 9.65379L34.5307 45.0091C32.4525 47.0873 29.8362 48.9108 26.7349 50.1622C23.6556 51.4047 20.6524 51.8608 18.0196 51.8608V1.86075ZM-0.824641 9.65379C-6.05823 14.8874 -8.61768 21.7382 -8.61768 28.498H41.3823C41.3823 31.1308 40.9263 34.134 39.6837 37.2133C38.4323 40.3147 36.6089 42.9309 34.5307 45.0091L-0.824641 9.65379ZM-8.61768 28.498C-8.61768 35.2578 -6.05823 42.1086 -0.824641 47.3422L34.5307 11.9869C36.6089 14.0651 38.4323 16.6813 39.6837 19.7827C40.9263 22.862 41.3823 25.8652 41.3823 28.498H-8.61768ZM-0.824641 47.3422C4.40895 52.5758 11.2598 55.1353 18.0196 55.1353V5.13526C20.6524 5.13526 23.6556 5.59129 26.7349 6.83383C29.8362 8.08526 32.4525 9.90868 34.5307 11.9869L-0.824641 47.3422ZM21.095 34.4591L21.6901 33.8639L-13.6652 -1.49142L-14.2604 -0.896283L21.095 34.4591ZM18.6148 -5.62539C20.8683 -3.95975 28.2843 2.30471 28.2843 13.7627H-21.7157C-21.7157 25.7119 -13.9859 32.4539 -11.1048 34.5834L18.6148 -5.62539ZM28.2843 13.7627C28.2843 20.2365 25.7676 25.206 23.4685 28.2715C21.3186 31.138 19.0499 32.8074 17.8885 33.5816L-9.84646 -8.0209C-11.8476 -6.68679 -21.7157 0.163603 -21.7157 13.7627H28.2843ZM17.8885 33.5816C17.5073 33.8358 17.1909 34.0291 16.9727 34.1584C16.7489 34.291 16.5694 34.391 16.4493 34.4564C16.2192 34.5817 16.0906 34.6435 16.1102 34.6339C16.1196 34.6293 16.199 34.591 16.3654 34.5156C16.5284 34.4418 16.7466 34.3451 17.0276 34.224L-2.76391 -11.6922C-4.03398 -11.1448 -7.1652 -9.8084 -9.84646 -8.0209L17.8885 33.5816ZM17.0427 34.2175C19.6082 33.1096 25.5308 30.4878 30.1776 25.5206L-6.33599 -8.6373C-5.29279 -9.75244 -4.36683 -10.4994 -3.80534 -10.9197C-3.22122 -11.357 -2.77824 -11.629 -2.56957 -11.752C-2.18726 -11.9775 -2.18081 -11.944 -2.77908 -11.6857L17.0427 34.2175ZM30.1776 25.5206C34.8836 20.49 38.1078 13.5694 38.1078 5.57644H-11.8922C-11.8922 2.92378 -11.3815 0.168357 -10.2853 -2.47761C-9.20403 -5.08769 -7.74577 -7.13028 -6.33599 -8.6373L30.1776 25.5206ZM38.1078 5.57644C38.1078 -3.80633 33.7833 -12.4835 26.1602 -18.1142L-3.54652 22.1041C-5.72839 20.4925 -8.01744 18.0881 -9.67754 14.7868C-11.3353 11.4901 -11.8922 8.24137 -11.8922 5.57644H38.1078ZM26.1602 -18.1142C19.4775 -23.0502 12.1866 -24.3353 6.55879 -24.3353V25.6647C4.86039 25.6647 0.734804 25.2664 -3.54652 22.1041L26.1602 -18.1142ZM6.55879 -24.3353C2.33713 -24.3353 -2.34591 -23.574 -7.00865 -21.4725L13.5363 24.1116C10.811 25.3399 8.32456 25.6647 6.55879 25.6647V-24.3353ZM-7.00865 -21.4725C-10.4402 -19.9259 -14.6606 -17.3403 -18.241 -13.0061L20.3071 18.8379C17.7636 21.9168 15.0304 23.4382 13.5363 24.1116L-7.00865 -21.4725ZM-18.0516 -13.2327C-22.5805 -7.88033 -25.1169 -0.593439 -24.1423 7.20378L25.4716 1.00204C25.8577 4.09045 25.6501 7.48054 24.5924 10.8887C23.545 14.2638 21.8716 16.9916 20.1177 19.0645L-18.0516 -13.2327ZM-24.1423 7.20378C-23.2437 14.3923 -19.5089 20.7175 -13.9641 24.9827L16.5214 -14.6485C18.6981 -12.9741 20.833 -10.7099 22.5137 -7.79665C24.1991 -4.87527 25.1163 -1.84039 25.4716 1.00204L-24.1423 7.20378ZM-14.8699 24.2518C-9.5176 28.7807 -2.23071 31.3171 5.56652 30.3425L-0.63522 -19.2714C2.45319 -19.6575 5.84329 -19.45 9.25143 -18.3923C12.6266 -17.3448 15.3544 -15.6714 17.4272 -13.9175L-14.8699 24.2518ZM5.56652 30.3425C11.3025 29.6255 16.8653 27.0643 21.2485 22.6811L-14.1069 -12.6743C-10.324 -16.4571 -5.49799 -18.6636 -0.63522 -19.2714L5.56652 30.3425ZM21.2485 22.6811C19.2535 24.676 16.5508 26.5628 13.1602 27.7595L-3.48083 -19.39C-7.79924 -17.8658 -11.3479 -15.4333 -14.1069 -12.6743L21.2485 22.6811ZM13.1602 27.7595C10.1382 28.8261 7.69651 28.9392 6.55879 28.9392V-21.0608C4.05669 -21.0608 0.468868 -20.784 -3.48083 -19.39L13.1602 27.7595ZM6.55879 28.9392C5.98329 28.9392 4.76621 28.9042 3.15305 28.5843C1.59727 28.2757 -1.09137 27.5532 -4.0673 25.7218L22.1376 -16.8611C15.6404 -20.8594 9.14318 -21.0608 6.55879 -21.0608V28.9392ZM-4.0673 25.7218C-5.78076 24.6674 -8.50239 22.6658 -10.8814 19.2498C-13.4638 15.5418 -15.1667 10.8131 -15.1667 5.57644H34.8333C34.8333 -6.97349 26.5735 -14.1313 22.1376 -16.8611L-4.0673 25.7218ZM-15.1667 5.57644C-15.1667 -6.09468 -7.46321 -12.3991 -4.61245 -14.2725L22.8464 27.5128C26.6523 25.0119 34.8333 18.0116 34.8333 5.57644H-15.1667ZM-4.61245 -14.2725C-4.42949 -14.3927 -4.26943 -14.4939 -4.13868 -14.5748C-4.00712 -14.6562 -3.89282 -14.7249 -3.79963 -14.7799C-3.70598 -14.8352 -3.62579 -14.8813 -3.56149 -14.9178C-3.49692 -14.9545 -3.44318 -14.9844 -3.40188 -15.0071C-3.32139 -15.0513 -3.27205 -15.0772 -3.26133 -15.0828C-3.24936 -15.0891 -3.26115 -15.0828 -3.30069 -15.0629C-3.3396 -15.0433 -3.39791 -15.0143 -3.4779 -14.9752C-3.55756 -14.9363 -3.65386 -14.8898 -3.76822 -14.8353C-3.99872 -14.7253 -4.28447 -14.5914 -4.63157 -14.4316L16.2756 30.9874C17.5809 30.3866 20.5008 29.0542 22.8464 27.5128L-4.61245 -14.2725ZM-4.19845 -14.626C-6.79625 -13.4895 -11.564 -11.2756 -15.6413 -7.52714L18.1986 29.2812C17.4061 30.0099 16.737 30.5059 16.3272 30.7913C15.9037 31.0863 15.5966 31.2676 15.4629 31.3441C15.2226 31.4815 15.2965 31.4207 15.8425 31.1818L-4.19845 -14.626ZM-15.6413 -7.52714C-21.6213 -2.02941 -24.9902 5.60078 -24.9902 13.7627H25.0098C25.0098 16.3371 24.5176 19.276 23.2123 22.2448C21.9075 25.212 20.0791 27.5524 18.1986 29.2812L-15.6413 -7.52714ZM-24.9902 13.7627C-24.9902 19.3081 -23.4184 25.5354 -19.2411 31.0643L20.6523 0.922645C23.9019 5.22356 25.0098 9.96372 25.0098 13.7627H-24.9902ZM-19.2411 31.0643C-17.7061 33.0959 -16.005 34.8111 -14.2624 36.2455L17.5139 -2.35849C18.5429 -1.51147 19.6306 -0.42963 20.6523 0.922645L-19.2411 31.0643ZM4.47468 3.53585C-2.42683 10.4374 -3.91633 19.2873 -2.89138 26.0385C-1.92741 32.3881 1.23268 37.825 5.44223 41.7107L39.3562 4.97057C42.9537 8.29132 45.6959 12.9592 46.5422 18.5337C47.4495 24.5098 46.1425 32.5786 39.83 38.8912L4.47468 3.53585ZM-12.3051 6.43874C-17.283 11.4293 -20.0785 18.1903 -20.0785 25.2391H29.9215C29.9215 31.4291 27.4666 37.3665 23.0952 41.749L-12.3051 6.43874ZM40.1101 1.32452C27.7974 -8.71656 12.6146 -4.6041 4.82738 3.18315L40.1827 38.5385C33.3786 45.3426 19.7456 49.2355 8.51042 40.0732L40.1101 1.32452ZM6.54319 51.8608C13.5919 51.8608 20.353 49.0653 25.3435 44.0874L-9.96673 8.68706C-5.58416 4.31565 0.353183 1.86075 6.54319 1.86075V51.8608ZM21.6901 33.8639C28.5393 27.0147 30.1585 18.0559 28.8881 10.921C27.6862 4.17065 23.9183 -1.7054 18.6148 -5.62539L-11.1048 34.5834C-15.8528 31.074 -19.2477 25.8074 -20.3377 19.6859C-21.4961 13.1798 -20.0259 4.86929 -13.6652 -1.49142L21.6901 33.8639ZM6.54319 1.86075C19.4547 1.86075 29.9215 12.3276 29.9215 25.2391H-20.0785C-20.0785 39.9418 -8.15953 51.8608 6.54319 51.8608V1.86075ZM-14.2604 -0.896283C-7.56801 -7.58863 6.14177 -11.7193 17.5139 -2.35849L-14.2624 36.2455C-1.8241 46.4839 13.4262 42.1278 21.095 34.4591L-14.2604 -0.896283ZM-7.64798 11.0305C-3.88084 7.25623 1.23279 5.13526 6.56537 5.13526V55.1353C14.51 55.1353 22.1285 51.9754 27.7409 46.3523L-7.64798 11.0305ZM26.647 25.2169C26.647 30.5495 24.526 35.6631 20.7517 39.4303L-14.57 4.04136C-20.1931 9.65377 -23.353 17.2722 -23.353 25.2169H26.647ZM-23.353 25.2169C-23.353 41.7404 -9.95807 55.1353 6.56537 55.1353V5.13526C17.6562 5.13526 26.647 14.1261 26.647 25.2169H-23.353Z" fill="#4AA03C" mask="url(#path-1-inside-1_449_83)"/>
</svg>
