<svg width="34" height="29" viewBox="0 0 34 29" fill="none" xmlns="http://www.w3.org/2000/svg">
<path d="M25.7602 25.2235H33.5372V28.498H22.4857L25.7602 25.2235ZM5.29452 28.498L1.81535 25.0188C1.18774 24.3912 0.867107 23.6135 0.853463 22.6858C0.839819 21.758 1.1468 20.9666 1.77442 20.3117L19.7842 1.64703C20.4118 0.992124 21.1827 0.664673 22.0968 0.664673C23.011 0.664673 23.7819 0.97848 24.4095 1.60609L32.5548 9.75144C33.1824 10.3791 33.4962 11.1567 33.4962 12.0845C33.4962 13.0123 33.1824 13.79 32.5548 14.4176L18.8019 28.498H5.29452ZM17.4102 25.2235L30.2627 12.0436L22.1582 3.93918L4.06658 22.6039L6.68618 25.2235H17.4102Z" fill="#79C36D"/>
</svg>
