<svg width="34" height="32" viewBox="0 0 34 32" fill="none" xmlns="http://www.w3.org/2000/svg">
<path d="M0.333496 15.3334L8.66683 0.333374L17.0002 15.3334H0.333496ZM8.66683 32C6.8335 32 5.26405 31.3473 3.9585 30.0417C2.65294 28.7362 2.00016 27.1667 2.00016 25.3334C2.00016 23.4723 2.65294 21.8959 3.9585 20.6042C5.26405 19.3125 6.8335 18.6667 8.66683 18.6667C10.5002 18.6667 12.0696 19.3195 13.3752 20.625C14.6807 21.9306 15.3335 23.5 15.3335 25.3334C15.3335 27.1667 14.6807 28.7362 13.3752 30.0417C12.0696 31.3473 10.5002 32 8.66683 32ZM8.66683 28.6667C9.5835 28.6667 10.3682 28.3403 11.021 27.6875C11.6738 27.0348 12.0002 26.25 12.0002 25.3334C12.0002 24.4167 11.6738 23.632 11.021 22.9792C10.3682 22.3264 9.5835 22 8.66683 22C7.75016 22 6.96544 22.3264 6.31266 22.9792C5.65988 23.632 5.3335 24.4167 5.3335 25.3334C5.3335 26.25 5.65988 27.0348 6.31266 27.6875C6.96544 28.3403 7.75016 28.6667 8.66683 28.6667ZM6.00016 12H11.3335L8.66683 7.20837L6.00016 12ZM18.6668 32V18.6667H32.0002V32H18.6668ZM22.0002 28.6667H28.6668V22H22.0002V28.6667ZM25.3335 15.3334C23.7502 14 22.4238 12.875 21.3543 11.9584C20.2849 11.0417 19.4307 10.2362 18.7918 9.54171C18.1529 8.84726 17.6946 8.19448 17.4168 7.58337C17.1391 6.97226 17.0002 6.31948 17.0002 5.62504C17.0002 4.37504 17.4377 3.31948 18.3127 2.45837C19.1877 1.59726 20.2779 1.16671 21.5835 1.16671C22.3335 1.16671 23.0349 1.34032 23.6877 1.68754C24.3404 2.03476 24.8891 2.51393 25.3335 3.12504C25.7779 2.51393 26.3266 2.03476 26.9793 1.68754C27.6321 1.34032 28.3335 1.16671 29.0835 1.16671C30.3891 1.16671 31.4793 1.59726 32.3543 2.45837C33.2293 3.31948 33.6668 4.37504 33.6668 5.62504C33.6668 6.31948 33.5279 6.97226 33.2502 7.58337C32.9724 8.19448 32.5141 8.84726 31.8752 9.54171C31.2363 10.2362 30.3821 11.0417 29.3127 11.9584C28.2432 12.875 26.9168 14 25.3335 15.3334ZM25.3335 10.9584C27.3335 9.29171 28.6668 8.11115 29.3335 7.41671C30.0002 6.72226 30.3335 6.15282 30.3335 5.70837C30.3335 5.34726 30.2293 5.0556 30.021 4.83337C29.8127 4.61115 29.5279 4.50004 29.1668 4.50004C28.8891 4.50004 28.6182 4.57643 28.3543 4.72921C28.0904 4.88199 27.7641 5.15282 27.3752 5.54171L25.3335 7.50004L23.2918 5.54171C22.9029 5.15282 22.5766 4.88199 22.3127 4.72921C22.0488 4.57643 21.7779 4.50004 21.5002 4.50004C21.1391 4.50004 20.8543 4.61115 20.646 4.83337C20.4377 5.0556 20.3335 5.34726 20.3335 5.70837C20.3335 6.15282 20.6668 6.72226 21.3335 7.41671C22.0002 8.11115 23.3335 9.29171 25.3335 10.9584Z" fill="#79C36D"/>
</svg>
