<svg width="31" height="31" viewBox="0 0 31 31" fill="none" xmlns="http://www.w3.org/2000/svg">
<path d="M27.105 8.47091H27.1102L27.1014 8.46207L22.3416 3.70231L22.3453 3.69865H22.3328H3.71127H3.69877V3.71115V27.0924V27.1049H3.71127H27.0925H27.105V27.0924V8.47091ZM30.4202 7.05651V27.0924C30.4202 28.0076 30.0945 28.7908 29.4427 29.4426C28.7909 30.0944 28.0077 30.4201 27.0925 30.4201H3.71127C2.79607 30.4201 2.0129 30.0944 1.36111 29.4426C0.709317 28.7908 0.383594 28.0076 0.383594 27.0924V3.71115C0.383594 2.79594 0.709317 2.01278 1.36111 1.36099C2.0129 0.709195 2.79607 0.383472 3.71127 0.383472H23.7472L30.4202 7.05651ZM18.942 23.9522C17.9702 24.924 16.7904 25.4098 15.4019 25.4098C14.0134 25.4098 12.8337 24.924 11.8618 23.9522C10.89 22.9803 10.4041 21.8005 10.4041 20.4121C10.4041 19.0236 10.89 17.8438 11.8618 16.872C12.8337 15.9001 14.0134 15.4143 15.4019 15.4143C16.7904 15.4143 17.9702 15.9001 18.942 16.872C19.9139 17.8438 20.3997 19.0236 20.3997 20.4121C20.3997 21.8005 19.9139 22.9803 18.942 23.9522ZM20.3997 5.39374V12.0491H5.39386V5.39374H20.3997Z" fill="#4AA03C" stroke="#4AA03C" stroke-width="0.025"/>
</svg>
