<svg width="34" height="34" viewBox="0 0 34 34" fill="none" xmlns="http://www.w3.org/2000/svg">
<path d="M23.6666 30.3334V15.3334H3.66659V30.3334H23.6666ZM26.9999 22V18.6667H30.3333V3.66671H10.3333V12H6.99992V3.66671C6.99992 2.75004 7.32631 1.96532 7.97909 1.31254C8.63186 0.659763 9.41658 0.333374 10.3333 0.333374H30.3333C31.2499 0.333374 32.0346 0.659763 32.6874 1.31254C33.3402 1.96532 33.6666 2.75004 33.6666 3.66671V18.6667C33.6666 19.5834 33.3402 20.3681 32.6874 21.0209C32.0346 21.6737 31.2499 22 30.3333 22H26.9999ZM3.66659 33.6667C2.74992 33.6667 1.9652 33.3403 1.31242 32.6875C0.659641 32.0348 0.333252 31.25 0.333252 30.3334V15.3334C0.333252 14.4167 0.659641 13.632 1.31242 12.9792C1.9652 12.3264 2.74992 12 3.66659 12H23.6666C24.5833 12 25.368 12.3264 26.0208 12.9792C26.6735 13.632 26.9999 14.4167 26.9999 15.3334V30.3334C26.9999 31.25 26.6735 32.0348 26.0208 32.6875C25.368 33.3403 24.5833 33.6667 23.6666 33.6667H3.66659Z" fill="#4AA03C"/>
</svg>
