<svg width="30" height="30" viewBox="0 0 30 30" fill="none" xmlns="http://www.w3.org/2000/svg">
<path d="M3.33333 26.6667V30C2.41667 30 1.63194 29.6736 0.979167 29.0208C0.326389 28.3681 0 27.5833 0 26.6667H3.33333ZM0 23.3333V20H3.33333V23.3333H0ZM0 16.6667V13.3333H3.33333V16.6667H0ZM0 10V6.66667H3.33333V10H0ZM3.33333 3.33333H0C0 2.41667 0.326389 1.63194 0.979167 0.979167C1.63194 0.326389 2.41667 0 3.33333 0V3.33333ZM6.66667 30V26.6667H10V30H6.66667ZM6.66667 3.33333V0H10V3.33333H6.66667ZM13.3333 30V26.6667H16.6667V30H13.3333ZM13.3333 3.33333V0H16.6667V3.33333H13.3333ZM20 30V26.6667H23.3333V30H20ZM20 3.33333V0H23.3333V3.33333H20ZM26.6667 26.6667H30C30 27.5833 29.6736 28.3681 29.0208 29.0208C28.3681 29.6736 27.5833 30 26.6667 30V26.6667ZM26.6667 23.3333V20H30V23.3333H26.6667ZM26.6667 16.6667V13.3333H30V16.6667H26.6667ZM26.6667 10V6.66667H30V10H26.6667ZM26.6667 3.33333V0C27.5833 0 28.3681 0.326389 29.0208 0.979167C29.6736 1.63194 30 2.41667 30 3.33333H26.6667Z" fill="#4AA03C"/>
</svg>
