<svg width="34" height="34" viewBox="0 0 34 34" fill="none" xmlns="http://www.w3.org/2000/svg">
<path d="M12.4167 33.6667L11.75 28.3334C11.3889 28.1945 11.0486 28.0278 10.7292 27.8334C10.4097 27.6389 10.0972 27.4306 9.79167 27.2084L4.83333 29.2917L0.25 21.375L4.54167 18.125C4.51389 17.9306 4.5 17.7431 4.5 17.5625V16.4375C4.5 16.257 4.51389 16.0695 4.54167 15.875L0.25 12.625L4.83333 4.70837L9.79167 6.79171C10.0972 6.56949 10.4167 6.36115 10.75 6.16671C11.0833 5.97226 11.4167 5.8056 11.75 5.66671L12.4167 0.333374H21.5833L22.25 5.66671C22.6111 5.8056 22.9514 5.97226 23.2708 6.16671C23.5903 6.36115 23.9028 6.56949 24.2083 6.79171L29.1667 4.70837L33.75 12.625L29.4583 15.875C29.4861 16.0695 29.5 16.257 29.5 16.4375V17.5625C29.5 17.7431 29.4722 17.9306 29.4167 18.125L33.7083 21.375L29.125 29.2917L24.2083 27.2084C23.9028 27.4306 23.5833 27.6389 23.25 27.8334C22.9167 28.0278 22.5833 28.1945 22.25 28.3334L21.5833 33.6667H12.4167ZM15.3333 30.3334H18.625L19.2083 25.9167C20.0694 25.6945 20.8681 25.3681 21.6042 24.9375C22.3403 24.507 23.0139 23.9862 23.625 23.375L27.75 25.0834L29.375 22.25L25.7917 19.5417C25.9306 19.1528 26.0278 18.7431 26.0833 18.3125C26.1389 17.882 26.1667 17.4445 26.1667 17C26.1667 16.5556 26.1389 16.1181 26.0833 15.6875C26.0278 15.257 25.9306 14.8473 25.7917 14.4584L29.375 11.75L27.75 8.91671L23.625 10.6667C23.0139 10.0278 22.3403 9.4931 21.6042 9.06254C20.8681 8.63199 20.0694 8.3056 19.2083 8.08337L18.6667 3.66671H15.375L14.7917 8.08337C13.9306 8.3056 13.1319 8.63199 12.3958 9.06254C11.6597 9.4931 10.9861 10.0139 10.375 10.625L6.25 8.91671L4.625 11.75L8.20833 14.4167C8.06944 14.8334 7.97222 15.25 7.91667 15.6667C7.86111 16.0834 7.83333 16.5278 7.83333 17C7.83333 17.4445 7.86111 17.875 7.91667 18.2917C7.97222 18.7084 8.06944 19.125 8.20833 19.5417L4.625 22.25L6.25 25.0834L10.375 23.3334C10.9861 23.9723 11.6597 24.507 12.3958 24.9375C13.1319 25.3681 13.9306 25.6945 14.7917 25.9167L15.3333 30.3334ZM17.0833 22.8334C18.6944 22.8334 20.0694 22.2639 21.2083 21.125C22.3472 19.9862 22.9167 18.6112 22.9167 17C22.9167 15.3889 22.3472 14.0139 21.2083 12.875C20.0694 11.7362 18.6944 11.1667 17.0833 11.1667C15.4444 11.1667 14.0625 11.7362 12.9375 12.875C11.8125 14.0139 11.25 15.3889 11.25 17C11.25 18.6112 11.8125 19.9862 12.9375 21.125C14.0625 22.2639 15.4444 22.8334 17.0833 22.8334Z" fill="#79C36D"/>
</svg>
