<svg width="34" height="34" viewBox="0 0 34 34" fill="none" xmlns="http://www.w3.org/2000/svg">
<path d="M10.3335 26.9167C10.6113 26.9445 10.8821 26.9653 11.146 26.9792C11.4099 26.9931 11.6946 27 12.0002 27C12.3057 27 12.5904 26.9931 12.8543 26.9792C13.1182 26.9653 13.3891 26.9445 13.6668 26.9167V30.3334H30.3335V13.6667H26.9168C26.9446 13.3889 26.9654 13.1181 26.9793 12.8542C26.9932 12.5903 27.0002 12.3056 27.0002 12C27.0002 11.6945 26.9932 11.4098 26.9793 11.1459C26.9654 10.882 26.9446 10.6112 26.9168 10.3334H30.3335C31.2502 10.3334 32.0349 10.6598 32.6877 11.3125C33.3404 11.9653 33.6668 12.75 33.6668 13.6667V30.3334C33.6668 31.25 33.3404 32.0348 32.6877 32.6875C32.0349 33.3403 31.2502 33.6667 30.3335 33.6667H13.6668C12.7502 33.6667 11.9654 33.3403 11.3127 32.6875C10.6599 32.0348 10.3335 31.25 10.3335 30.3334V26.9167ZM12.0002 23.6667C8.75016 23.6667 5.99322 22.5348 3.72933 20.2709C1.46544 18.007 0.333496 15.25 0.333496 12C0.333496 8.75004 1.46544 5.9931 3.72933 3.72921C5.99322 1.46532 8.75016 0.333374 12.0002 0.333374C15.2502 0.333374 18.0071 1.46532 20.271 3.72921C22.5349 5.9931 23.6668 8.75004 23.6668 12C23.6668 15.25 22.5349 18.007 20.271 20.2709C18.0071 22.5348 15.2502 23.6667 12.0002 23.6667ZM12.0002 20.3334C14.3057 20.3334 16.271 19.5209 17.896 17.8959C19.521 16.2709 20.3335 14.3056 20.3335 12C20.3335 9.69448 19.521 7.72921 17.896 6.10421C16.271 4.47921 14.3057 3.66671 12.0002 3.66671C9.69461 3.66671 7.72933 4.47921 6.10433 6.10421C4.47933 7.72921 3.66683 9.69448 3.66683 12C3.66683 14.3056 4.47933 16.2709 6.10433 17.8959C7.72933 19.5209 9.69461 20.3334 12.0002 20.3334Z" fill="#79C36D"/>
</svg>
