<svg width="112" height="127" viewBox="0 0 112 127" fill="none" xmlns="http://www.w3.org/2000/svg">
<line x1="55.8196" y1="4.01636" x2="55.8196" y2="122.049" stroke="black" stroke-width="10"/>
<line x1="111.475" y1="63.1147" x2="-6.86646e-05" y2="63.1147" stroke="black" stroke-width="10"/>
<line x1="104.329" y1="12.3292" x2="6.32948" y2="110.329" stroke="black" stroke-width="10"/>
<path d="M102.382 88V82.28L103.122 84.24L96.9622 74H100.402L105.122 81.86H103.142L107.882 74H111.062L104.902 84.24L105.622 82.28V88H102.382Z" fill="black"/>
<path d="M34.051 19V16.9L42.711 6.46L43.111 7.64H34.211V5H45.991V7.1L37.351 17.54L36.951 16.36H46.291V19H34.051Z" fill="black"/>
<path d="M15.4213 122L21.4413 113.7V116.06L15.6813 108H19.3613L23.3413 113.62L21.8013 113.64L25.7213 108H29.2413L23.5213 115.92V113.6L29.5813 122H25.8413L21.7213 116.06H23.2013L19.1413 122H15.4213Z" fill="black"/>
</svg>
