<svg width="124" height="74" viewBox="0 0 124 74" fill="none" xmlns="http://www.w3.org/2000/svg">
<path d="M5 32C2.23858 32 0 34.2386 0 37C0 39.7614 2.23858 42 5 42V32ZM122.536 40.5355C124.488 38.5829 124.488 35.4171 122.536 33.4645L90.7157 1.64466C88.7631 -0.307961 85.5973 -0.307961 83.6447 1.64466C81.692 3.59728 81.692 6.76311 83.6447 8.71573L111.929 37L83.6447 65.2843C81.692 67.2369 81.692 70.4027 83.6447 72.3553C85.5973 74.308 88.7631 74.308 90.7157 72.3553L122.536 40.5355ZM5 42H119V32H5V42Z" fill="black"/>
</svg>
