<svg width="54" height="155" viewBox="0 0 54 155" fill="none" xmlns="http://www.w3.org/2000/svg">
<path d="M26.894 27.8726L43 36.2563L11 53.0237L26.894 60.9775" stroke="black" stroke-width="10" stroke-linecap="round"/>
<path d="M26.894 94.0825L43 102.466L11 119.234L26.894 127.188" stroke="black" stroke-width="10" stroke-linecap="round"/>
<path d="M22 27.5716C22 30.333 24.2386 32.5716 27 32.5716C29.7614 32.5716 32 30.333 32 27.5716L22 27.5716ZM32 5L32 2.18557e-07L22 -2.18557e-07L22 5L32 5ZM32 27.5716L32 5L22 5L22 27.5716L32 27.5716Z" fill="black"/>
<path d="M22 149.76L22 154.76L32 154.76L32 149.76L22 149.76ZM32 127.188C32 124.427 29.7614 122.188 27 122.188C24.2386 122.188 22 124.427 22 127.188L32 127.188ZM32 149.76L32 127.188L22 127.188L22 149.76L32 149.76Z" fill="black"/>
<path d="M26.894 60.9775L43 69.3613L11 86.1287L26.894 94.0825" stroke="black" stroke-width="10" stroke-linecap="round"/>
</svg>
