<svg width="41" height="41" viewBox="0 0 41 41" fill="none" xmlns="http://www.w3.org/2000/svg">
<mask id="mask0_130_1746" style="mask-type:alpha" maskUnits="userSpaceOnUse" x="0" y="0" width="41" height="41">
<rect x="0.86084" y="0.86084" width="39.0822" height="39.0822" fill="#D9D9D9" stroke="#8FC7C4"/>
</mask>
<g mask="url(#mask0_130_1746)">
<path d="M13.7391 25.412L20.4017 18.7494L27.0645 25.4122L24.7439 27.7742L22.0807 25.111L22.0593 25.0897V25.1198V32.08H18.7441V25.1198V25.0897L18.7228 25.111L16.1012 27.7326L13.7391 25.412ZM30.4223 15.3791H22.0843V7.04111V7.02861H22.0718H10.3812H10.3687V7.04111V33.7626V33.7751H10.3812H30.4223H30.4348V33.7626V15.3916V15.3791H30.4223ZM10.3812 37.0902C9.46599 37.0902 8.68283 36.7645 8.03103 36.1127C7.37924 35.4609 7.05352 34.6778 7.05352 33.7626V7.04111C7.05352 6.1259 7.37924 5.34274 8.03103 4.69094C8.68283 4.03915 9.46599 3.71343 10.3812 3.71343H23.7367L33.75 13.7266V33.7626C33.75 34.6778 33.4242 35.4609 32.7724 36.1127C32.1207 36.7645 31.3375 37.0902 30.4223 37.0902H10.3812Z" fill="#4AA03C" stroke="#4AA03C" stroke-width="0.025"/>
</g>
</svg>
